<svg xmlns="http://www.w3.org/2000/svg" width="160" height="40" fill="none" xmlns:v="https://vecta.io/nano"><path fill-rule="evenodd" d="M68.317 29.531V13.214H72.7V8.192h-4.382V0h-6.17v8.192h-3.794v5.022h3.794v16.317h6.17zM6.214 18.237v11.295H0V8.192h6.214v3.103c.509-1.101 1.235-1.972 2.18-2.612a6.25 6.25 0 0 1 3.27-.915c3.3 0 5.531 1.25 6.693 3.75 1.526-2.53 3.597-3.795 6.214-3.795s4.615.841 5.996 2.522 2.071 4.07 2.071 7.165v12.121H26.49V18.147c0-1.309-.312-2.344-.937-3.103-.654-.759-1.512-1.138-2.573-1.138s-1.911.357-2.551 1.072-.959 1.801-.959 3.259v11.295h-6.214V18.013c-.058-1.28-.4-2.284-1.025-3.013-.639-.729-1.468-1.094-2.485-1.094s-1.86.35-2.529 1.049-1.003 1.793-1.003 3.281zM57.498 8.192L44.635 40h-6.562l5.015-12.656-8.045-19.152h6.606l4.6 12.098 4.644-12.098h6.606zm37.794 17.455c-1.933 2.902-5.109 4.345-9.528 4.33-3.067 0-5.654-1.034-7.762-3.103-2.079-2.098-3.118-4.792-3.118-8.08s1.039-5.96 3.118-8.013 4.651-3.073 7.718-3.058c3.067 0 5.618 1.042 7.653 3.125s3.06 4.792 3.074 8.125a381.71 381.71 0 0 1-.087 1.964H81.077c.116 1.131.683 2.009 1.701 2.634s2.166.938 3.445.938c1.991 0 3.51-.67 4.557-2.009l4.513 3.147zm-5.102-8.683h-9.026c.233-1.161.814-2.069 1.744-2.723.901-.655 1.875-.967 2.921-.937s1.999.357 2.856.982 1.359 1.518 1.504 2.679zm22.897 12.255c-1.177.506-2.303.744-3.379.714-2.863 0-5.349-1.027-7.456-3.08s-3.162-4.725-3.162-8.013 1.09-5.96 3.271-8.013 4.629-3.088 7.347-3.103c1.105 0 2.238.246 3.401.737s2.057 1.19 2.682 2.098V8.192h6.148v21.339h-6.148v-2.433c-.625.908-1.526 1.615-2.704 2.121zm-2.376-5.313a5.14 5.14 0 0 1-3.641-1.428c-1.047-.952-1.57-2.158-1.57-3.616 0-1.443.523-2.656 1.57-3.638 1.134-.967 2.376-1.451 3.728-1.451s2.522.476 3.51 1.429 1.483 2.173 1.483 3.661-.494 2.701-1.483 3.638-2.187 1.406-3.597 1.406zm22.81-5.67v11.295h-6.213V8.192h6.213v3.103c.509-1.101 1.236-1.972 2.181-2.612 1.017-.61 2.107-.915 3.27-.915 3.299 0 5.531 1.25 6.693 3.75 1.527-2.53 3.598-3.795 6.214-3.795s4.615.841 5.996 2.522 2.071 4.07 2.071 7.165v12.121h-6.148V18.147c0-1.309-.313-2.344-.938-3.103-.654-.759-1.511-1.138-2.573-1.138s-1.911.357-2.55 1.072-.96 1.801-.96 3.259v11.295h-6.213V18.013c-.059-1.28-.4-2.284-1.025-3.013-.64-.729-1.468-1.094-2.486-1.094s-1.86.35-2.529 1.049-1.003 1.793-1.003 3.281z" fill="#fff"/></svg>